<?xml version="1.0" standalone="no"?>
<!DOCTYPE svg PUBLIC "-//W3C//DTD SVG 20010904//EN"
 "http://www.w3.org/TR/2001/REC-SVG-20010904/DTD/svg10.dtd">
<svg version="1.0" xmlns="http://www.w3.org/2000/svg"
 width="300.000000pt" height="354.000000pt" viewBox="0 0 300.000000 354.000000"
 preserveAspectRatio="xMidYMid meet">
<metadata>
Created by potrace 1.10, written by Peter Selinger 2001-2011
</metadata>
<g transform="translate(0.000000,354.000000) scale(0.100000,-0.100000)"
fill="#000000" stroke="none">
<path d="M1262 3523 c-46 -84 -112 -607 -112 -877 0 -140 16 -276 34 -294 12
-13 15 -7 21 44 6 60 21 111 37 129 4 5 8 -28 8 -73 0 -62 6 -100 25 -154 14
-39 25 -80 25 -90 0 -17 -2 -17 -30 -3 -49 25 -60 20 -60 -28 0 -53 5 -58 132
-125 114 -61 128 -63 128 -22 0 33 6 36 34 15 18 -13 21 -12 40 18 l21 32 3
-42 c2 -24 5 -43 6 -43 2 0 50 22 107 49 57 28 120 51 139 53 l35 3 -3 47 c-2
26 6 86 18 135 25 98 26 160 6 248 -8 33 -13 61 -11 63 2 2 15 -4 29 -13 45
-29 45 -17 12 280 -35 313 -67 476 -117 610 -17 47 -23 55 -29 40 -11 -31 3
-530 15 -528 13 4 24 47 33 135 l8 73 14 -74 c11 -60 11 -91 2 -168 -17 -131
-41 -233 -58 -240 -8 -3 -34 16 -62 45 -78 80 -138 88 -307 38 -44 -13 -83
-22 -87 -19 -5 2 -8 64 -8 136 0 153 -19 536 -29 587 -7 34 -8 34 -19 13z"/>
<path d="M1240 2035 c0 -14 11 -37 25 -50 20 -21 34 -25 80 -25 30 0 55 4 55
9 0 6 -29 24 -65 41 -35 17 -67 35 -70 40 -11 19 -25 10 -25 -15z"/>
<path d="M1722 2017 c-46 -24 -80 -46 -76 -50 4 -4 30 -7 57 -7 44 0 54 4 88
39 40 39 49 61 27 60 -7 0 -50 -19 -96 -42z"/>
<path d="M1511 1908 c-5 -14 -15 -53 -22 -86 -11 -53 -11 -63 4 -86 10 -14 21
-26 26 -26 12 0 21 53 21 129 0 78 -13 110 -29 69z"/>
<path d="M1082 1722 c-7 -22 -12 -57 -12 -79 0 -25 -8 -50 -20 -65 -24 -31
-116 -79 -290 -153 -182 -77 -257 -102 -374 -126 -54 -11 -117 -29 -139 -40
-49 -26 -127 -102 -167 -166 -34 -52 -80 -188 -80 -231 l1 -27 22 25 c12 14
30 37 40 50 17 24 17 21 11 -126 -3 -91 -2 -154 4 -157 5 -4 40 32 77 79 89
110 209 224 277 263 55 32 98 40 98 19 0 -7 -26 -56 -58 -108 -67 -111 -95
-171 -90 -194 2 -14 9 -11 39 14 20 16 49 34 63 40 39 15 44 -10 16 -91 -13
-38 -21 -71 -18 -74 3 -4 24 6 47 20 22 15 45 24 50 20 6 -3 11 -29 11 -57 l0
-51 143 139 c175 172 307 260 490 329 26 10 47 21 47 25 0 8 -40 26 -80 35
-18 4 -59 -10 -149 -55 -68 -33 -125 -59 -127 -57 -2 2 24 26 59 55 34 28 80
69 102 91 34 35 36 41 18 41 -11 0 -40 -7 -63 -15 -84 -30 -88 -19 -16 46 73
67 79 85 46 146 -11 21 -20 43 -20 49 0 6 -9 19 -20 29 -15 14 -29 16 -65 10
-42 -6 -46 -5 -43 12 2 10 32 39 68 65 36 27 85 65 109 86 l43 37 -12 80 c-15
103 -23 117 -38 67z"/>
<path d="M2027 1453 l-6 -78 42 -42 c29 -31 36 -43 24 -43 -32 0 -17 -17 67
-79 100 -74 151 -128 161 -170 14 -66 -6 -64 -145 14 -120 68 -173 83 -229 66
-23 -6 -41 -16 -41 -20 0 -5 36 -32 81 -61 44 -28 79 -53 77 -55 -2 -2 -30 6
-63 17 -46 16 -71 19 -107 14 -27 -4 -48 -10 -48 -14 1 -4 33 -22 73 -40 144
-66 317 -208 440 -362 72 -90 81 -96 112 -76 24 16 36 56 32 106 -2 23 1 25
36 24 39 -1 49 14 22 36 -8 7 -15 16 -15 21 0 11 62 12 92 0 49 -18 78 -21 78
-10 0 7 -43 55 -95 108 -52 54 -95 103 -95 109 0 7 9 12 20 12 41 0 211 -62
257 -93 26 -18 66 -45 87 -60 21 -15 43 -27 48 -27 11 0 7 53 -12 157 -8 40
-11 75 -7 79 11 11 37 -16 62 -65 30 -58 32 -32 5 73 -25 101 -63 168 -123
221 -65 59 -137 84 -289 101 -175 19 -203 30 -414 150 -61 35 -113 64 -116 64
-3 0 -8 -35 -11 -77z"/>
<path d="M1073 868 c-32 -17 -78 -45 -103 -61 -59 -41 -179 -161 -218 -218
l-31 -46 78 -5 c106 -6 159 -33 212 -106 22 -32 45 -75 51 -98 l11 -41 93 -6
c51 -4 108 -13 126 -21 63 -27 133 -101 178 -187 27 -53 45 -78 52 -71 5 5 25
45 44 87 37 86 70 127 125 156 47 23 157 41 232 37 l58 -3 18 52 c25 74 65
130 116 162 51 32 150 55 192 45 l27 -7 -18 29 c-92 142 -231 268 -351 318
-36 16 -40 15 -49 -1 -44 -79 -189 -173 -267 -173 -42 0 -49 10 -49 76 0 24
-3 44 -7 44 -4 0 -19 -12 -34 -26 -33 -31 -70 -28 -86 8 l-11 23 -11 -28 c-6
-16 -11 -38 -11 -51 0 -92 -150 -44 -256 81 l-53 62 -58 -31z"/>
</g>
</svg>
